<?xml version="1.0" encoding="UTF-8"?>
<!--Generator: Apple Native CoreSVG 232.5-->
<!DOCTYPE svg
PUBLIC "-//W3C//DTD SVG 1.1//EN"
       "http://www.w3.org/Graphics/SVG/1.1/DTD/svg11.dtd">
<svg version="1.1" xmlns="http://www.w3.org/2000/svg" xmlns:xlink="http://www.w3.org/1999/xlink" width="3300" height="2200">
 <!--glyph: "", point size: 100.0, font version: "19.0d8e1", template writer version: "128"-->
 <style>.monochrome-0 {-sfsymbols-motion-group:1}
.monochrome-1 {-sfsymbols-motion-group:0}

.multicolor-0:systemYellowColor {-sfsymbols-motion-group:1}
.multicolor-1:systemBlueColor {-sfsymbols-motion-group:0}

.hierarchical-0:secondary {-sfsymbols-motion-group:0}

.SFSymbolsPreviewWireframe {fill:none;opacity:1.0;stroke:black;stroke-width:0.5}
</style>
 <g id="Notes">
  <rect height="2200" id="artboard" style="fill:white;opacity:1" width="3300" x="0" y="0"/>
  <line style="fill:none;stroke:black;opacity:1;stroke-width:0.5;" x1="263" x2="3036" y1="292" y2="292"/>
  <text style="stroke:none;fill:black;font-family:sans-serif;font-size:13;font-weight:bold;" transform="matrix(1 0 0 1 263 322)">Weight/Scale Variations</text>
  <text style="stroke:none;fill:black;font-family:sans-serif;font-size:13;text-anchor:middle;" transform="matrix(1 0 0 1 559.711 322)">Ultralight</text>
  <text style="stroke:none;fill:black;font-family:sans-serif;font-size:13;text-anchor:middle;" transform="matrix(1 0 0 1 856.422 322)">Thin</text>
  <text style="stroke:none;fill:black;font-family:sans-serif;font-size:13;text-anchor:middle;" transform="matrix(1 0 0 1 1153.13 322)">Light</text>
  <text style="stroke:none;fill:black;font-family:sans-serif;font-size:13;text-anchor:middle;" transform="matrix(1 0 0 1 1449.84 322)">Regular</text>
  <text style="stroke:none;fill:black;font-family:sans-serif;font-size:13;text-anchor:middle;" transform="matrix(1 0 0 1 1746.56 322)">Medium</text>
  <text style="stroke:none;fill:black;font-family:sans-serif;font-size:13;text-anchor:middle;" transform="matrix(1 0 0 1 2043.27 322)">Semibold</text>
  <text style="stroke:none;fill:black;font-family:sans-serif;font-size:13;text-anchor:middle;" transform="matrix(1 0 0 1 2339.98 322)">Bold</text>
  <text style="stroke:none;fill:black;font-family:sans-serif;font-size:13;text-anchor:middle;" transform="matrix(1 0 0 1 2636.69 322)">Heavy</text>
  <text style="stroke:none;fill:black;font-family:sans-serif;font-size:13;text-anchor:middle;" transform="matrix(1 0 0 1 2933.4 322)">Black</text>
  <line style="fill:none;stroke:black;opacity:1;stroke-width:0.5;" x1="263" x2="3036" y1="1903" y2="1903"/>
  <g transform="matrix(0.2 0 0 0.2 263 1933)">
   <path d="m46.2402 4.15039c21.5332 0 39.4531-17.8711 39.4531-39.4043s-17.9688-39.4043-39.502-39.4043c-21.4844 0-39.3555 17.8711-39.3555 39.4043s17.9199 39.4043 39.4043 39.4043Zm0-7.42188c-17.7246 0-31.8848-14.209-31.8848-31.9824s14.1113-31.9824 31.8359-31.9824c17.7734 0 32.0312 14.209 32.0312 31.9824s-14.209 31.9824-31.9824 31.9824Zm-17.9688-31.9824c0 2.14844 1.51367 3.61328 3.75977 3.61328h10.498v10.5957c0 2.19727 1.46484 3.71094 3.61328 3.71094 2.24609 0 3.71094-1.51367 3.71094-3.71094v-10.5957h10.5957c2.19727 0 3.71094-1.46484 3.71094-3.61328 0-2.19727-1.51367-3.71094-3.71094-3.71094h-10.5957v-10.5469c0-2.24609-1.46484-3.75977-3.71094-3.75977-2.14844 0-3.61328 1.51367-3.61328 3.75977v10.5469h-10.498c-2.24609 0-3.75977 1.51367-3.75977 3.71094Z"/>
  </g>
  <g transform="matrix(0.2 0 0 0.2 281.506 1933)">
   <path d="m58.5449 14.5508c27.2461 0 49.8047-22.6074 49.8047-49.8047 0-27.2461-22.6074-49.8047-49.8535-49.8047-27.1973 0-49.7559 22.5586-49.7559 49.8047 0 27.1973 22.6074 49.8047 49.8047 49.8047Zm0-8.30078c-23.0469 0-41.4551-18.457-41.4551-41.5039s18.3594-41.5039 41.4062-41.5039 41.5527 18.457 41.5527 41.5039-18.457 41.5039-41.5039 41.5039Zm-22.6562-41.5039c0 2.39258 1.66016 4.00391 4.15039 4.00391h14.3555v14.4043c0 2.44141 1.66016 4.15039 4.05273 4.15039 2.44141 0 4.15039-1.66016 4.15039-4.15039v-14.4043h14.4043c2.44141 0 4.15039-1.61133 4.15039-4.00391 0-2.44141-1.70898-4.15039-4.15039-4.15039h-14.4043v-14.3555c0-2.49023-1.70898-4.19922-4.15039-4.19922-2.39258 0-4.05273 1.70898-4.05273 4.19922v14.3555h-14.3555c-2.49023 0-4.15039 1.70898-4.15039 4.15039Z"/>
  </g>
  <g transform="matrix(0.2 0 0 0.2 304.924 1933)">
   <path d="m74.8535 28.3203c34.8145 0 63.623-28.8086 63.623-63.5742 0-34.8145-28.8574-63.623-63.6719-63.623-34.7656 0-63.5254 28.8086-63.5254 63.623 0 34.7656 28.8086 63.5742 63.5742 63.5742Zm0-9.08203c-30.1758 0-54.4434-24.3164-54.4434-54.4922 0-30.2246 24.2188-54.4922 54.3945-54.4922 30.2246 0 54.541 24.2676 54.541 54.4922 0 30.1758-24.2676 54.4922-54.4922 54.4922Zm-28.8574-54.4922c0 2.58789 1.85547 4.39453 4.58984 4.39453h19.7266v19.7754c0 2.68555 1.85547 4.58984 4.44336 4.58984 2.68555 0 4.54102-1.85547 4.54102-4.58984v-19.7754h19.7754c2.68555 0 4.58984-1.80664 4.58984-4.39453 0-2.73438-1.85547-4.58984-4.58984-4.58984h-19.7754v-19.7266c0-2.73438-1.85547-4.63867-4.54102-4.63867-2.58789 0-4.44336 1.9043-4.44336 4.63867v19.7266h-19.7266c-2.73438 0-4.58984 1.85547-4.58984 4.58984Z"/>
  </g>
  <text style="stroke:none;fill:black;font-family:sans-serif;font-size:13;font-weight:bold;" transform="matrix(1 0 0 1 263 1953)">Design Variations</text>
  <text style="stroke:none;fill:black;font-family:sans-serif;font-size:13;" transform="matrix(1 0 0 1 263 1971)">Symbols are supported in up to nine weights and three scales.</text>
  <text style="stroke:none;fill:black;font-family:sans-serif;font-size:13;" transform="matrix(1 0 0 1 263 1989)">For optimal layout with text and other symbols, vertically align</text>
  <text style="stroke:none;fill:black;font-family:sans-serif;font-size:13;" transform="matrix(1 0 0 1 263 2007)">symbols with the adjacent text.</text>
  <line style="fill:none;stroke:#00AEEF;stroke-width:0.5;opacity:1.0;" x1="776" x2="776" y1="1919" y2="1933"/>
  <g transform="matrix(0.2 0 0 0.2 776 1933)">
   <path d="m16.5527 0.78125c2.58789 0 3.85742-0.976562 4.78516-3.71094l6.29883-17.2363h28.8086l6.29883 17.2363c0.927734 2.73438 2.19727 3.71094 4.73633 3.71094 2.58789 0 4.24805-1.5625 4.24805-4.00391 0-0.830078-0.146484-1.61133-0.537109-2.63672l-22.9004-60.9863c-1.12305-2.97852-3.125-4.49219-6.25-4.49219-3.02734 0-5.07812 1.46484-6.15234 4.44336l-22.9004 61.084c-0.390625 1.02539-0.537109 1.80664-0.537109 2.63672 0 2.44141 1.5625 3.95508 4.10156 3.95508Zm13.4766-28.3691 11.8652-32.8613h0.244141l11.8652 32.8613Z"/>
  </g>
  <line style="fill:none;stroke:#00AEEF;stroke-width:0.5;opacity:1.0;" x1="792.836" x2="792.836" y1="1919" y2="1933"/>
  <text style="stroke:none;fill:black;font-family:sans-serif;font-size:13;font-weight:bold;" transform="matrix(1 0 0 1 776 1953)">Margins</text>
  <text style="stroke:none;fill:black;font-family:sans-serif;font-size:13;" transform="matrix(1 0 0 1 776 1971)">Leading and trailing margins on the left and right side of each symbol</text>
  <text style="stroke:none;fill:black;font-family:sans-serif;font-size:13;" transform="matrix(1 0 0 1 776 1989)">can be adjusted by modifying the x-location of the margin guidelines.</text>
  <text style="stroke:none;fill:black;font-family:sans-serif;font-size:13;" transform="matrix(1 0 0 1 776 2007)">Modifications are automatically applied proportionally to all</text>
  <text style="stroke:none;fill:black;font-family:sans-serif;font-size:13;" transform="matrix(1 0 0 1 776 2025)">scales and weights.</text>
  <g transform="matrix(0.2 0 0 0.2 1289 1933)">
   <path d="m14.209 9.32617 8.49609 8.54492c4.29688 4.3457 9.22852 4.05273 13.8672-1.07422l53.4668-58.9355-4.83398-4.88281-53.0762 58.3984c-1.75781 2.00195-3.41797 2.49023-5.76172 0.146484l-5.85938-5.81055c-2.34375-2.29492-1.80664-4.00391 0.195312-5.81055l57.373-54.0039-4.88281-4.83398-57.959 54.4434c-4.93164 4.58984-5.32227 9.47266-1.02539 13.8184Zm32.0801-90.9668c-2.09961 2.05078-2.24609 4.93164-1.07422 6.88477 1.17188 1.80664 3.4668 2.97852 6.68945 2.14844 7.32422-1.70898 14.9414-2.00195 22.0703 2.68555l-2.92969 7.27539c-1.70898 4.15039-0.830078 7.08008 1.85547 9.81445l11.4746 11.5723c2.44141 2.44141 4.49219 2.53906 7.32422 2.05078l5.32227-0.976562 3.32031 3.36914-0.195312 2.7832c-0.195312 2.49023 0.439453 4.39453 2.88086 6.78711l3.80859 3.71094c2.39258 2.39258 5.46875 2.53906 7.8125 0.195312l14.5508-14.5996c2.34375-2.34375 2.24609-5.32227-0.146484-7.71484l-3.85742-3.80859c-2.39258-2.39258-4.24805-3.17383-6.64062-2.97852l-2.88086 0.244141-3.22266-3.17383 1.2207-5.61523c0.634766-2.83203-0.146484-5.0293-3.07617-7.95898l-10.9863-10.9375c-16.6992-16.6016-38.8672-16.2109-53.3203-1.75781Zm7.4707 1.85547c12.1582-8.88672 28.6133-7.37305 39.7461 3.75977l12.1582 12.0605c1.17188 1.17188 1.36719 2.09961 1.02539 3.80859l-1.61133 7.42188 7.51953 7.42188 4.93164-0.292969c1.26953-0.0488281 1.66016 0.0488281 2.63672 1.02539l2.88086 2.88086-12.207 12.207-2.88086-2.88086c-0.976562-0.976562-1.12305-1.36719-1.07422-2.68555l0.341797-4.88281-7.4707-7.42188-7.61719 1.26953c-1.61133 0.341797-2.34375 0.195312-3.56445-0.976562l-10.0098-10.0098c-1.26953-1.17188-1.41602-2.00195-0.634766-3.85742l4.39453-10.4492c-7.8125-7.27539-17.9688-10.4004-28.125-7.42188-0.78125 0.195312-1.07422-0.439453-0.439453-0.976562Z"/>
  </g>
  <text style="stroke:none;fill:black;font-family:sans-serif;font-size:13;font-weight:bold;" transform="matrix(1 0 0 1 1289 1953)">Exporting</text>
  <text style="stroke:none;fill:black;font-family:sans-serif;font-size:13;" transform="matrix(1 0 0 1 1289 1971)">Symbols should be outlined when exporting to ensure the</text>
  <text style="stroke:none;fill:black;font-family:sans-serif;font-size:13;" transform="matrix(1 0 0 1 1289 1989)">design is preserved when submitting to Xcode.</text>
  <text id="template-version" style="stroke:none;fill:black;font-family:sans-serif;font-size:13;text-anchor:end;" transform="matrix(1 0 0 1 3036 1933)">Template v.5.0</text>
  <text style="stroke:none;fill:black;font-family:sans-serif;font-size:13;text-anchor:end;" transform="matrix(1 0 0 1 3036 1951)">Requires Xcode 15 or greater</text>
  <text id="descriptive-name" style="stroke:none;fill:black;font-family:sans-serif;font-size:13;text-anchor:end;" transform="matrix(1 0 0 1 3036 1969)">Generated from Untitled-6</text>
  <text style="stroke:none;fill:black;font-family:sans-serif;font-size:13;text-anchor:end;" transform="matrix(1 0 0 1 3036 1987)">Typeset at 100.0 points</text>
  <text style="stroke:none;fill:black;font-family:sans-serif;font-size:13;" transform="matrix(1 0 0 1 263 726)">Small</text>
  <text style="stroke:none;fill:black;font-family:sans-serif;font-size:13;" transform="matrix(1 0 0 1 263 1156)">Medium</text>
  <text style="stroke:none;fill:black;font-family:sans-serif;font-size:13;" transform="matrix(1 0 0 1 263 1586)">Large</text>
 </g>
 <g id="Guides">
  <g id="H-reference" style="fill:#27AAE1;stroke:none;" transform="matrix(1 0 0 1 339 696)">
   <path d="M0.993654 0L3.63775 0L29.3281-67.1323L30.0303-67.1323L30.0303-70.459L28.1226-70.459ZM11.6885-24.4799L46.9815-24.4799L46.2315-26.7285L12.4385-26.7285ZM55.1196 0L57.7637 0L30.6382-70.459L29.4326-70.459L29.4326-67.1323Z"/>
  </g>
  <line id="Baseline-S" style="fill:none;stroke:#27AAE1;opacity:1;stroke-width:0.5;" x1="263" x2="3036" y1="696" y2="696"/>
  <line id="Capline-S" style="fill:none;stroke:#27AAE1;opacity:1;stroke-width:0.5;" x1="263" x2="3036" y1="625.541" y2="625.541"/>
  <g id="H-reference" style="fill:#27AAE1;stroke:none;" transform="matrix(1 0 0 1 339 1126)">
   <path d="M0.993654 0L3.63775 0L29.3281-67.1323L30.0303-67.1323L30.0303-70.459L28.1226-70.459ZM11.6885-24.4799L46.9815-24.4799L46.2315-26.7285L12.4385-26.7285ZM55.1196 0L57.7637 0L30.6382-70.459L29.4326-70.459L29.4326-67.1323Z"/>
  </g>
  <line id="Baseline-M" style="fill:none;stroke:#27AAE1;opacity:1;stroke-width:0.5;" x1="263" x2="3036" y1="1126" y2="1126"/>
  <line id="Capline-M" style="fill:none;stroke:#27AAE1;opacity:1;stroke-width:0.5;" x1="263" x2="3036" y1="1055.54" y2="1055.54"/>
  <g id="H-reference" style="fill:#27AAE1;stroke:none;" transform="matrix(1 0 0 1 339 1556)">
   <path d="M0.993654 0L3.63775 0L29.3281-67.1323L30.0303-67.1323L30.0303-70.459L28.1226-70.459ZM11.6885-24.4799L46.9815-24.4799L46.2315-26.7285L12.4385-26.7285ZM55.1196 0L57.7637 0L30.6382-70.459L29.4326-70.459L29.4326-67.1323Z"/>
  </g>
  <line id="Baseline-L" style="fill:none;stroke:#27AAE1;opacity:1;stroke-width:0.5;" x1="263" x2="3036" y1="1556" y2="1556"/>
  <line id="Capline-L" style="fill:none;stroke:#27AAE1;opacity:1;stroke-width:0.5;" x1="263" x2="3036" y1="1485.54" y2="1485.54"/>
  <line id="left-margin-Ultralight-S" style="fill:none;stroke:#00AEEF;stroke-width:0.5;opacity:1.0;" x1="517.502" x2="517.502" y1="600.785" y2="720.121"/>
  <line id="right-margin-Ultralight-S" style="fill:none;stroke:#00AEEF;stroke-width:0.5;opacity:1.0;" x1="601.92" x2="601.92" y1="600.785" y2="720.121"/>
  <line id="left-margin-Regular-S" style="fill:none;stroke:#00AEEF;stroke-width:0.5;opacity:1.0;" x1="1404.75" x2="1404.75" y1="600.785" y2="720.121"/>
  <line id="right-margin-Regular-S" style="fill:none;stroke:#00AEEF;stroke-width:0.5;opacity:1.0;" x1="1494.94" x2="1494.94" y1="600.785" y2="720.121"/>
  <line id="left-margin-Black-S" style="fill:none;stroke:#FF3B30;stroke-width:0.5;opacity:1.0;" x1="2889.19" x2="2889.19" y1="600.785" y2="720.121"/>
  <line id="right-margin-Black-S" style="fill:none;stroke:#FF3B30;stroke-width:0.5;opacity:1.0;" x1="2977.61" x2="2977.61" y1="600.785" y2="720.121"/>
 </g>
 <g id="Symbols">
  <g id="Black-S" transform="matrix(1 0 0 1 2889.19 696)">
   <path class="SFSymbolsPreviewWireframe" d="M44.942-13.373C57.588-13.373 67.989-23.773 67.989-36.42C67.989-49.066 57.588-59.467 44.942-59.467C32.295-59.467 21.895-49.066 21.895-36.42C21.895-23.773 32.295-13.373 44.942-13.373Z"/>
   <path class="monochrome-0 multicolor-0:systemYellowColor hierarchical-0:secondary SFSymbolsPreviewWireframe" d="M44.942-26.703C39.668-26.703 35.225-31.147 35.225-36.42C35.225-41.693 39.668-46.137 44.942-46.137C50.215-46.137 54.658-41.693 54.658-36.42C54.658-31.147 50.215-26.703 44.942-26.703ZM44.942-65.473C48.36-65.473 51.24-68.354 51.24-71.772L51.24-78.363C51.24-81.781 48.36-84.711 44.942-84.711C41.524-84.711 38.643-81.781 38.643-78.363L38.643-71.772C38.643-68.354 41.524-65.473 44.942-65.473ZM65.596-56.732C67.94-54.389 72.09-54.438 74.483-56.879L79.121-61.566C81.465-63.91 81.416-68.061 78.975-70.502C76.631-72.846 72.481-72.748 70.088-70.356L65.449-65.668C63.106-63.324 63.155-59.174 65.596-56.732ZM74.141-36.42C74.141-33.002 77.022-30.121 80.44-30.121L87.032-30.121C90.449-30.121 93.379-33.002 93.379-36.42C93.379-39.838 90.449-42.719 87.032-42.719L80.44-42.719C77.022-42.719 74.141-39.838 74.141-36.42ZM65.449-15.912C63.106-13.568 63.155-9.467 65.596-7.025L70.283-2.387C72.627-0.043 76.778-0.092 79.219-2.533C81.563-4.877 81.514-9.027 79.073-11.42L74.385-16.059C72.041-18.402 67.891-18.354 65.449-15.912ZM44.942-7.367C41.524-7.367 38.643-4.486 38.643-1.068L38.643 5.523C38.643 8.941 41.524 11.871 44.942 11.871C48.36 11.871 51.24 8.941 51.24 5.523L51.24-1.068C51.24-4.486 48.36-7.367 44.942-7.367ZM24.434-15.912C21.992-18.354 17.842-18.402 15.498-16.059L10.811-11.42C8.369-9.027 8.321-4.877 10.664-2.533C13.106-0.092 17.256-0.043 19.6-2.387L24.287-7.025C26.729-9.467 26.778-13.568 24.434-15.912ZM15.791-36.42C15.791-39.838 12.862-42.719 9.444-42.719L2.852-42.719C-0.566-42.719-3.447-39.838-3.447-36.42C-3.447-33.002-0.566-30.121 2.852-30.121L9.444-30.121C12.862-30.121 15.791-33.002 15.791-36.42ZM24.287-56.732C26.729-59.174 26.778-63.324 24.434-65.668L19.795-70.356C17.403-72.748 13.252-72.846 10.908-70.502C8.467-68.061 8.418-63.91 10.762-61.566L15.401-56.879C17.793-54.438 21.944-54.389 24.287-56.732Z"/>
   <path class="monochrome-1 multicolor-1:systemBlueColor SFSymbolsPreviewWireframe" d="M63.4766-25.1465C45.459-25.1465 34.2285-35.8887 34.2285-53.3691C34.2285-58.2031 35.0586-62.9883 36.6211-65.7715C37.4023-67.2363 37.8906-68.6035 37.8906-69.873C37.8906-71.8262 36.5723-73.1934 34.4727-73.1934C33.3984-73.1934 32.2266-72.9004 30.8594-72.3633C16.3574-66.4551 6.83594-52.2461 6.83594-36.6211C6.83594-14.4531 23.0957 1.85547 45.2637 1.85547C60.5469 1.85547 74.3164-7.12891 80.5176-21.0938C81.25-22.7051 81.5918-24.1211 81.5918-25.293C81.5918-27.1973 80.5176-28.418 78.6621-28.418C77.3438-28.418 75.8301-27.9785 74.1699-27.0996C71.8262-25.8789 67.5781-25.1465 63.4766-25.1465Z"/>
  </g>
  <g id="Regular-S" transform="matrix(1 0 0 1 1404.75 696)">
   <path class="SFSymbolsPreviewWireframe" d="M45.875-16.498C56.714-16.498 65.748-25.482 65.748-36.42C65.748-47.357 56.714-56.342 45.875-56.342C34.986-56.342 25.953-47.357 25.953-36.42C25.953-25.482 34.986-16.498 45.875-16.498Z"/>
   <path class="monochrome-0 multicolor-0:systemYellowColor hierarchical-0:secondary SFSymbolsPreviewWireframe" d="M45.875-23.139C38.599-23.139 32.593-29.193 32.593-36.42C32.593-43.647 38.599-49.701 45.875-49.701C53.101-49.701 59.107-43.647 59.107-36.42C59.107-29.193 53.101-23.139 45.875-23.139ZM45.875-62.641C47.925-62.641 49.634-64.398 49.634-66.449L49.634-74.359C49.634-76.41 47.925-78.119 45.875-78.119C43.775-78.119 42.066-76.41 42.066-74.359L42.066-66.449C42.066-64.398 43.775-62.641 45.875-62.641ZM64.332-54.926C65.796-53.461 68.238-53.412 69.752-54.926L75.367-60.492C76.783-61.957 76.783-64.447 75.367-65.912C73.902-67.377 71.46-67.377 69.996-65.912L64.332-60.248C62.916-58.783 62.916-56.391 64.332-54.926ZM71.998-36.42C71.998-34.369 73.755-32.611 75.806-32.611L83.619-32.611C85.718-32.611 87.427-34.369 87.427-36.42C87.427-38.471 85.718-40.229 83.619-40.229L75.806-40.229C73.755-40.229 71.998-38.471 71.998-36.42ZM64.332-17.865C62.916-16.4 62.916-14.008 64.332-12.543L69.996-6.879C71.46-5.414 73.902-5.463 75.367-6.928C76.783-8.393 76.783-10.834 75.367-12.299L69.703-17.865C68.238-19.33 65.796-19.33 64.332-17.865ZM45.875-10.199C43.775-10.199 42.066-8.441 42.066-6.391L42.066 1.52C42.066 3.57 43.775 5.279 45.875 5.279C47.925 5.279 49.634 3.57 49.634 1.52L49.634-6.391C49.634-8.441 47.925-10.199 45.875-10.199ZM27.369-17.865C25.904-19.33 23.414-19.33 21.949-17.865L16.382-12.348C14.918-10.883 14.918-8.441 16.334-6.977C17.798-5.512 20.24-5.463 21.705-6.928L27.32-12.543C28.785-14.008 28.785-16.4 27.369-17.865ZM19.703-36.42C19.703-38.471 17.994-40.229 15.894-40.229L8.082-40.229C5.982-40.229 4.273-38.471 4.273-36.42C4.273-34.369 5.982-32.611 8.082-32.611L15.894-32.611C17.994-32.611 19.703-34.369 19.703-36.42ZM27.32-54.926C28.785-56.342 28.785-58.832 27.369-60.248L21.753-65.912C20.337-67.328 17.847-67.377 16.431-65.912C14.966-64.447 14.966-61.957 16.382-60.541L21.949-54.926C23.414-53.461 25.855-53.461 27.32-54.926Z"/>
   <path class="monochrome-1 multicolor-1:systemBlueColor SFSymbolsPreviewWireframe" d="M66.8945-22.0215C45.9473-22.0215 32.8613-34.8145 32.8613-55.7617C32.8613-59.7168 33.9844-66.3086 35.3027-69.3848C35.6934-70.3613 35.7422-70.9961 35.7422-71.3867C35.7422-72.4121 34.9609-73.6816 33.3496-73.6816C32.9102-73.6816 31.8848-73.584 30.8594-73.1934C16.4551-67.5293 6.83594-52.0996 6.83594-35.791C6.83594-12.8418 24.2188 3.27148 47.1191 3.27148C63.916 3.27148 78.125-6.88477 82.9102-19.4336C83.252-20.459 83.3496-21.4844 83.3496-21.875C83.3496-23.3887 82.0801-24.3652 80.957-24.3652C80.4199-24.3652 79.9316-24.2676 79.1016-24.0234C76.123-23.0469 71.4844-22.0215 66.8945-22.0215Z"/>
  </g>
  <g id="Ultralight-S" transform="matrix(1 0 0 1 517.502 696)">
   <path class="SFSymbolsPreviewWireframe" d="M42.854-18.723C52.559-18.723 60.547-26.754 60.547-36.42C60.547-46.086 52.559-54.117 42.854-54.117C33.191-54.117 25.157-46.086 25.157-36.42C25.157-26.754 33.191-18.723 42.854-18.723Z"/>
   <path class="monochrome-0 multicolor-0:systemYellowColor hierarchical-0:secondary SFSymbolsPreviewWireframe" d="M42.854-20.914C34.398-20.914 27.348-27.922 27.348-36.42C27.348-44.918 34.398-51.926 42.854-51.926C51.352-51.926 58.357-44.918 58.357-36.42C58.357-27.922 51.352-20.914 42.854-20.914ZM42.945-64.73C43.633-64.73 44.071-65.17 44.071-65.859L44.071-75.767C44.071-76.41 43.633-76.848 42.945-76.848C42.298-76.848 41.861-76.41 41.861-75.767L41.861-65.859C41.861-65.17 42.298-64.73 42.945-64.73ZM62.946-56.424C63.457-56.004 64.082-56.001 64.551-56.424L71.574-63.398C71.991-63.91 71.991-64.538 71.574-65.049C71.063-65.424 70.438-65.424 69.972-65.049L62.946-58.023C62.574-57.512 62.574-56.89 62.946-56.424ZM71.248-36.42C71.248-35.777 71.734-35.291 72.377-35.291L82.278-35.291C82.97-35.291 83.408-35.777 83.408-36.42C83.408-37.063 82.97-37.549 82.278-37.549L72.377-37.549C71.734-37.549 71.248-37.063 71.248-36.42ZM62.946-16.412C62.574-15.946 62.574-15.325 62.946-14.813L69.972-7.787C70.438-7.412 71.063-7.416 71.574-7.791C71.991-8.302 71.991-8.927 71.574-9.438L64.548-16.412C64.082-16.833 63.457-16.833 62.946-16.412ZM42.945-8.11C42.298-8.11 41.861-7.669 41.861-6.981L41.861 2.927C41.861 3.57 42.298 4.008 42.945 4.008C43.633 4.008 44.071 3.57 44.071 2.927L44.071-6.981C44.071-7.669 43.633-8.11 42.945-8.11ZM22.986-16.412C22.475-16.833 21.846-16.833 21.38-16.412L14.361-9.441C13.94-8.93 13.94-8.305 14.357-7.794C14.823-7.419 15.494-7.416 15.96-7.791L22.983-14.813C23.358-15.325 23.358-15.946 22.986-16.412ZM14.639-36.42C14.639-37.063 14.201-37.549 13.555-37.549L3.653-37.549C2.961-37.549 2.524-37.063 2.524-36.42C2.524-35.777 2.961-35.291 3.653-35.291L13.555-35.291C14.201-35.291 14.639-35.777 14.639-36.42ZM22.983-56.424C23.358-56.887 23.358-57.515 22.986-58.023L15.963-65.049C15.501-65.421 14.827-65.424 14.364-65.049C13.944-64.538 13.944-63.91 14.361-63.402L21.38-56.424C21.846-56.004 22.471-56.004 22.983-56.424Z"/>
   <path class="monochrome-1 multicolor-1:systemBlueColor SFSymbolsPreviewWireframe" d="M62.0357-21.522C42.4961-21.522 28.6382-35.3594 28.6382-54.9898C28.6382-60.8066 29.2618-64.7193 30.8526-68.522C31.0162-68.8174 31.065-69.1343 31.065-69.3887C31.065-70.2778 30.3745-71.0025 29.4898-71.0025C29.232-71.0025 28.9785-70.9502 28.6797-70.832C15.7285-65.2588 6.83594-51.1006 6.83594-36.0635C6.83594-15.7934 22.811 0.0927985 43.1685 0.0927985C58.149 0.0927985 72.8575-9.10985 77.461-21.2046C77.5757-21.458 77.5826-21.7568 77.5826-22.0112C77.5826-22.98 76.9488-23.7295 76.0074-23.7295C75.8335-23.7295 75.6631-23.6773 75.4234-23.6147C72.5357-22.6836 67.3067-21.522 62.0357-21.522Z"/>
  </g>
 </g>
</svg>
