<?xml version="1.0" encoding="UTF-8"?>
<!--Generator: Apple Native CoreSVG 232.5-->
<!DOCTYPE svg
PUBLIC "-//W3C//DTD SVG 1.1//EN"
       "http://www.w3.org/Graphics/SVG/1.1/DTD/svg11.dtd">
<svg version="1.1" xmlns="http://www.w3.org/2000/svg" xmlns:xlink="http://www.w3.org/1999/xlink" width="3300" height="2200">
 <!--glyph: "", point size: 100.0, font version: "19.0d8e1", template writer version: "128"-->
 <style>.monochrome-0 {-sfsymbols-motion-group:2}
.monochrome-1 {-sfsymbols-motion-group:1}
.monochrome-2 {-sfsymbols-motion-group:0}

.multicolor-0:tintColor {-sfsymbols-motion-group:2}
.multicolor-1:tintColor {-sfsymbols-motion-group:1}
.multicolor-2:tintColor {-sfsymbols-motion-group:0}

.hierarchical-0:primary {-sfsymbols-motion-group:2}
.hierarchical-1:secondary {-sfsymbols-motion-group:1}
.hierarchical-2:tertiary {-sfsymbols-motion-group:0}

.SFSymbolsPreviewWireframe {fill:none;opacity:1.0;stroke:black;stroke-width:0.5}
</style>
 <g id="Notes">
  <rect height="2200" id="artboard" style="fill:white;opacity:1" width="3300" x="0" y="0"/>
  <line style="fill:none;stroke:black;opacity:1;stroke-width:0.5;" x1="263" x2="3036" y1="292" y2="292"/>
  <text style="stroke:none;fill:black;font-family:sans-serif;font-size:13;font-weight:bold;" transform="matrix(1 0 0 1 263 322)">Weight/Scale Variations</text>
  <text style="stroke:none;fill:black;font-family:sans-serif;font-size:13;text-anchor:middle;" transform="matrix(1 0 0 1 559.711 322)">Ultralight</text>
  <text style="stroke:none;fill:black;font-family:sans-serif;font-size:13;text-anchor:middle;" transform="matrix(1 0 0 1 856.422 322)">Thin</text>
  <text style="stroke:none;fill:black;font-family:sans-serif;font-size:13;text-anchor:middle;" transform="matrix(1 0 0 1 1153.13 322)">Light</text>
  <text style="stroke:none;fill:black;font-family:sans-serif;font-size:13;text-anchor:middle;" transform="matrix(1 0 0 1 1449.84 322)">Regular</text>
  <text style="stroke:none;fill:black;font-family:sans-serif;font-size:13;text-anchor:middle;" transform="matrix(1 0 0 1 1746.56 322)">Medium</text>
  <text style="stroke:none;fill:black;font-family:sans-serif;font-size:13;text-anchor:middle;" transform="matrix(1 0 0 1 2043.27 322)">Semibold</text>
  <text style="stroke:none;fill:black;font-family:sans-serif;font-size:13;text-anchor:middle;" transform="matrix(1 0 0 1 2339.98 322)">Bold</text>
  <text style="stroke:none;fill:black;font-family:sans-serif;font-size:13;text-anchor:middle;" transform="matrix(1 0 0 1 2636.69 322)">Heavy</text>
  <text style="stroke:none;fill:black;font-family:sans-serif;font-size:13;text-anchor:middle;" transform="matrix(1 0 0 1 2933.4 322)">Black</text>
  <line style="fill:none;stroke:black;opacity:1;stroke-width:0.5;" x1="263" x2="3036" y1="1903" y2="1903"/>
  <g transform="matrix(0.2 0 0 0.2 263 1933)">
   <path d="m46.2402 4.15039c21.5332 0 39.4531-17.8711 39.4531-39.4043s-17.9688-39.4043-39.502-39.4043c-21.4844 0-39.3555 17.8711-39.3555 39.4043s17.9199 39.4043 39.4043 39.4043Zm0-7.42188c-17.7246 0-31.8848-14.209-31.8848-31.9824s14.1113-31.9824 31.8359-31.9824c17.7734 0 32.0312 14.209 32.0312 31.9824s-14.209 31.9824-31.9824 31.9824Zm-17.9688-31.9824c0 2.14844 1.51367 3.61328 3.75977 3.61328h10.498v10.5957c0 2.19727 1.46484 3.71094 3.61328 3.71094 2.24609 0 3.71094-1.51367 3.71094-3.71094v-10.5957h10.5957c2.19727 0 3.71094-1.46484 3.71094-3.61328 0-2.19727-1.51367-3.71094-3.71094-3.71094h-10.5957v-10.5469c0-2.24609-1.46484-3.75977-3.71094-3.75977-2.14844 0-3.61328 1.51367-3.61328 3.75977v10.5469h-10.498c-2.24609 0-3.75977 1.51367-3.75977 3.71094Z"/>
  </g>
  <g transform="matrix(0.2 0 0 0.2 281.506 1933)">
   <path d="m58.5449 14.5508c27.2461 0 49.8047-22.6074 49.8047-49.8047 0-27.2461-22.6074-49.8047-49.8535-49.8047-27.1973 0-49.7559 22.5586-49.7559 49.8047 0 27.1973 22.6074 49.8047 49.8047 49.8047Zm0-8.30078c-23.0469 0-41.4551-18.457-41.4551-41.5039s18.3594-41.5039 41.4062-41.5039 41.5527 18.457 41.5527 41.5039-18.457 41.5039-41.5039 41.5039Zm-22.6562-41.5039c0 2.39258 1.66016 4.00391 4.15039 4.00391h14.3555v14.4043c0 2.44141 1.66016 4.15039 4.05273 4.15039 2.44141 0 4.15039-1.66016 4.15039-4.15039v-14.4043h14.4043c2.44141 0 4.15039-1.61133 4.15039-4.00391 0-2.44141-1.70898-4.15039-4.15039-4.15039h-14.4043v-14.3555c0-2.49023-1.70898-4.19922-4.15039-4.19922-2.39258 0-4.05273 1.70898-4.05273 4.19922v14.3555h-14.3555c-2.49023 0-4.15039 1.70898-4.15039 4.15039Z"/>
  </g>
  <g transform="matrix(0.2 0 0 0.2 304.924 1933)">
   <path d="m74.8535 28.3203c34.8145 0 63.623-28.8086 63.623-63.5742 0-34.8145-28.8574-63.623-63.6719-63.623-34.7656 0-63.5254 28.8086-63.5254 63.623 0 34.7656 28.8086 63.5742 63.5742 63.5742Zm0-9.08203c-30.1758 0-54.4434-24.3164-54.4434-54.4922 0-30.2246 24.2188-54.4922 54.3945-54.4922 30.2246 0 54.541 24.2676 54.541 54.4922 0 30.1758-24.2676 54.4922-54.4922 54.4922Zm-28.8574-54.4922c0 2.58789 1.85547 4.39453 4.58984 4.39453h19.7266v19.7754c0 2.68555 1.85547 4.58984 4.44336 4.58984 2.68555 0 4.54102-1.85547 4.54102-4.58984v-19.7754h19.7754c2.68555 0 4.58984-1.80664 4.58984-4.39453 0-2.73438-1.85547-4.58984-4.58984-4.58984h-19.7754v-19.7266c0-2.73438-1.85547-4.63867-4.54102-4.63867-2.58789 0-4.44336 1.9043-4.44336 4.63867v19.7266h-19.7266c-2.73438 0-4.58984 1.85547-4.58984 4.58984Z"/>
  </g>
  <text style="stroke:none;fill:black;font-family:sans-serif;font-size:13;font-weight:bold;" transform="matrix(1 0 0 1 263 1953)">Design Variations</text>
  <text style="stroke:none;fill:black;font-family:sans-serif;font-size:13;" transform="matrix(1 0 0 1 263 1971)">Symbols are supported in up to nine weights and three scales.</text>
  <text style="stroke:none;fill:black;font-family:sans-serif;font-size:13;" transform="matrix(1 0 0 1 263 1989)">For optimal layout with text and other symbols, vertically align</text>
  <text style="stroke:none;fill:black;font-family:sans-serif;font-size:13;" transform="matrix(1 0 0 1 263 2007)">symbols with the adjacent text.</text>
  <line style="fill:none;stroke:#00AEEF;stroke-width:0.5;opacity:1.0;" x1="776" x2="776" y1="1919" y2="1933"/>
  <g transform="matrix(0.2 0 0 0.2 776 1933)">
   <path d="m16.5527 0.78125c2.58789 0 3.85742-0.976562 4.78516-3.71094l6.29883-17.2363h28.8086l6.29883 17.2363c0.927734 2.73438 2.19727 3.71094 4.73633 3.71094 2.58789 0 4.24805-1.5625 4.24805-4.00391 0-0.830078-0.146484-1.61133-0.537109-2.63672l-22.9004-60.9863c-1.12305-2.97852-3.125-4.49219-6.25-4.49219-3.02734 0-5.07812 1.46484-6.15234 4.44336l-22.9004 61.084c-0.390625 1.02539-0.537109 1.80664-0.537109 2.63672 0 2.44141 1.5625 3.95508 4.10156 3.95508Zm13.4766-28.3691 11.8652-32.8613h0.244141l11.8652 32.8613Z"/>
  </g>
  <line style="fill:none;stroke:#00AEEF;stroke-width:0.5;opacity:1.0;" x1="792.836" x2="792.836" y1="1919" y2="1933"/>
  <text style="stroke:none;fill:black;font-family:sans-serif;font-size:13;font-weight:bold;" transform="matrix(1 0 0 1 776 1953)">Margins</text>
  <text style="stroke:none;fill:black;font-family:sans-serif;font-size:13;" transform="matrix(1 0 0 1 776 1971)">Leading and trailing margins on the left and right side of each symbol</text>
  <text style="stroke:none;fill:black;font-family:sans-serif;font-size:13;" transform="matrix(1 0 0 1 776 1989)">can be adjusted by modifying the x-location of the margin guidelines.</text>
  <text style="stroke:none;fill:black;font-family:sans-serif;font-size:13;" transform="matrix(1 0 0 1 776 2007)">Modifications are automatically applied proportionally to all</text>
  <text style="stroke:none;fill:black;font-family:sans-serif;font-size:13;" transform="matrix(1 0 0 1 776 2025)">scales and weights.</text>
  <g transform="matrix(0.2 0 0 0.2 1289 1933)">
   <path d="m14.209 9.32617 8.49609 8.54492c4.29688 4.3457 9.22852 4.05273 13.8672-1.07422l53.4668-58.9355-4.83398-4.88281-53.0762 58.3984c-1.75781 2.00195-3.41797 2.49023-5.76172 0.146484l-5.85938-5.81055c-2.34375-2.29492-1.80664-4.00391 0.195312-5.81055l57.373-54.0039-4.88281-4.83398-57.959 54.4434c-4.93164 4.58984-5.32227 9.47266-1.02539 13.8184Zm32.0801-90.9668c-2.09961 2.05078-2.24609 4.93164-1.07422 6.88477 1.17188 1.80664 3.4668 2.97852 6.68945 2.14844 7.32422-1.70898 14.9414-2.00195 22.0703 2.68555l-2.92969 7.27539c-1.70898 4.15039-0.830078 7.08008 1.85547 9.81445l11.4746 11.5723c2.44141 2.44141 4.49219 2.53906 7.32422 2.05078l5.32227-0.976562 3.32031 3.36914-0.195312 2.7832c-0.195312 2.49023 0.439453 4.39453 2.88086 6.78711l3.80859 3.71094c2.39258 2.39258 5.46875 2.53906 7.8125 0.195312l14.5508-14.5996c2.34375-2.34375 2.24609-5.32227-0.146484-7.71484l-3.85742-3.80859c-2.39258-2.39258-4.24805-3.17383-6.64062-2.97852l-2.88086 0.244141-3.22266-3.17383 1.2207-5.61523c0.634766-2.83203-0.146484-5.0293-3.07617-7.95898l-10.9863-10.9375c-16.6992-16.6016-38.8672-16.2109-53.3203-1.75781Zm7.4707 1.85547c12.1582-8.88672 28.6133-7.37305 39.7461 3.75977l12.1582 12.0605c1.17188 1.17188 1.36719 2.09961 1.02539 3.80859l-1.61133 7.42188 7.51953 7.42188 4.93164-0.292969c1.26953-0.0488281 1.66016 0.0488281 2.63672 1.02539l2.88086 2.88086-12.207 12.207-2.88086-2.88086c-0.976562-0.976562-1.12305-1.36719-1.07422-2.68555l0.341797-4.88281-7.4707-7.42188-7.61719 1.26953c-1.61133 0.341797-2.34375 0.195312-3.56445-0.976562l-10.0098-10.0098c-1.26953-1.17188-1.41602-2.00195-0.634766-3.85742l4.39453-10.4492c-7.8125-7.27539-17.9688-10.4004-28.125-7.42188-0.78125 0.195312-1.07422-0.439453-0.439453-0.976562Z"/>
  </g>
  <text style="stroke:none;fill:black;font-family:sans-serif;font-size:13;font-weight:bold;" transform="matrix(1 0 0 1 1289 1953)">Exporting</text>
  <text style="stroke:none;fill:black;font-family:sans-serif;font-size:13;" transform="matrix(1 0 0 1 1289 1971)">Symbols should be outlined when exporting to ensure the</text>
  <text style="stroke:none;fill:black;font-family:sans-serif;font-size:13;" transform="matrix(1 0 0 1 1289 1989)">design is preserved when submitting to Xcode.</text>
  <text id="template-version" style="stroke:none;fill:black;font-family:sans-serif;font-size:13;text-anchor:end;" transform="matrix(1 0 0 1 3036 1933)">Template v.5.0</text>
  <text style="stroke:none;fill:black;font-family:sans-serif;font-size:13;text-anchor:end;" transform="matrix(1 0 0 1 3036 1951)">Requires Xcode 15 or greater</text>
  <text id="descriptive-name" style="stroke:none;fill:black;font-family:sans-serif;font-size:13;text-anchor:end;" transform="matrix(1 0 0 1 3036 1969)">Generated from 3times</text>
  <text style="stroke:none;fill:black;font-family:sans-serif;font-size:13;text-anchor:end;" transform="matrix(1 0 0 1 3036 1987)">Typeset at 100.0 points</text>
  <text style="stroke:none;fill:black;font-family:sans-serif;font-size:13;" transform="matrix(1 0 0 1 263 726)">Small</text>
  <text style="stroke:none;fill:black;font-family:sans-serif;font-size:13;" transform="matrix(1 0 0 1 263 1156)">Medium</text>
  <text style="stroke:none;fill:black;font-family:sans-serif;font-size:13;" transform="matrix(1 0 0 1 263 1586)">Large</text>
 </g>
 <g id="Guides">
  <g id="H-reference" style="fill:#27AAE1;stroke:none;" transform="matrix(1 0 0 1 339 696)">
   <path d="M0.993654 0L3.63775 0L29.3281-67.1323L30.0303-67.1323L30.0303-70.459L28.1226-70.459ZM11.6885-24.4799L46.9815-24.4799L46.2315-26.7285L12.4385-26.7285ZM55.1196 0L57.7637 0L30.6382-70.459L29.4326-70.459L29.4326-67.1323Z"/>
  </g>
  <line id="Baseline-S" style="fill:none;stroke:#27AAE1;opacity:1;stroke-width:0.5;" x1="263" x2="3036" y1="696" y2="696"/>
  <line id="Capline-S" style="fill:none;stroke:#27AAE1;opacity:1;stroke-width:0.5;" x1="263" x2="3036" y1="625.541" y2="625.541"/>
  <g id="H-reference" style="fill:#27AAE1;stroke:none;" transform="matrix(1 0 0 1 339 1126)">
   <path d="M0.993654 0L3.63775 0L29.3281-67.1323L30.0303-67.1323L30.0303-70.459L28.1226-70.459ZM11.6885-24.4799L46.9815-24.4799L46.2315-26.7285L12.4385-26.7285ZM55.1196 0L57.7637 0L30.6382-70.459L29.4326-70.459L29.4326-67.1323Z"/>
  </g>
  <line id="Baseline-M" style="fill:none;stroke:#27AAE1;opacity:1;stroke-width:0.5;" x1="263" x2="3036" y1="1126" y2="1126"/>
  <line id="Capline-M" style="fill:none;stroke:#27AAE1;opacity:1;stroke-width:0.5;" x1="263" x2="3036" y1="1055.54" y2="1055.54"/>
  <g id="H-reference" style="fill:#27AAE1;stroke:none;" transform="matrix(1 0 0 1 339 1556)">
   <path d="M0.993654 0L3.63775 0L29.3281-67.1323L30.0303-67.1323L30.0303-70.459L28.1226-70.459ZM11.6885-24.4799L46.9815-24.4799L46.2315-26.7285L12.4385-26.7285ZM55.1196 0L57.7637 0L30.6382-70.459L29.4326-70.459L29.4326-67.1323Z"/>
  </g>
  <line id="Baseline-L" style="fill:none;stroke:#27AAE1;opacity:1;stroke-width:0.5;" x1="263" x2="3036" y1="1556" y2="1556"/>
  <line id="Capline-L" style="fill:none;stroke:#27AAE1;opacity:1;stroke-width:0.5;" x1="263" x2="3036" y1="1485.54" y2="1485.54"/>
  <line id="left-margin-Ultralight-S" style="fill:none;stroke:#FF3B30;stroke-width:0.5;opacity:1.0;" x1="473.807" x2="473.807" y1="600.785" y2="720.121"/>
  <line id="right-margin-Ultralight-S" style="fill:none;stroke:#FF3B30;stroke-width:0.5;opacity:1.0;" x1="645.615" x2="645.615" y1="600.785" y2="720.121"/>
  <line id="left-margin-Regular-S" style="fill:none;stroke:#FF3B30;stroke-width:0.5;opacity:1.0;" x1="1363.74" x2="1363.74" y1="600.785" y2="720.121"/>
  <line id="right-margin-Regular-S" style="fill:none;stroke:#FF3B30;stroke-width:0.5;opacity:1.0;" x1="1535.95" x2="1535.95" y1="600.785" y2="720.121"/>
  <line id="left-margin-Black-S" style="fill:none;stroke:#00AEEF;stroke-width:0.5;opacity:1.0;" x1="2843.34" x2="2843.34" y1="600.785" y2="720.121"/>
  <line id="right-margin-Black-S" style="fill:none;stroke:#FF3B30;stroke-width:0.5;opacity:1.0;" x1="3023.46" x2="3023.46" y1="600.785" y2="720.121"/>
 </g>
 <g id="Symbols">
  <g id="Black-S" transform="matrix(1 0 0 1 2843.34 696)">
   <path class="monochrome-0 multicolor-0:tintColor hierarchical-0:primary SFSymbolsPreviewWireframe" d="M113.488 2.50077L159.484 2.50077C167.199 2.50077 171.154-0.38008 171.154-6.28829C171.154-18.9835 155.871-30.8 136.486-30.8C117.102-30.8 101.818-18.9835 101.818-6.28829C101.818-0.38008 105.774 2.50077 113.488 2.50077ZM115.1-8.24141C114.611-8.24141 114.514-8.58321 114.514-8.87618C114.514-12.6847 122.815-20.0578 136.486-20.0578C150.158-20.0578 158.459-12.6847 158.459-8.87618C158.459-8.58321 158.361-8.24141 157.873-8.24141ZM136.486-33.8761C146.447-33.8761 154.26-42.3234 154.26-53.0168C154.26-63.3195 146.252-71.9132 136.486-71.9132C126.721-71.9132 118.713-63.3195 118.713-53.0168C118.713-42.3234 126.526-33.8761 136.486-33.8761ZM136.486-44.6183C132.629-44.6183 129.455-47.7433 129.455-53.0656C129.455-57.8996 132.776-61.1711 136.486-61.1711C140.246-61.1711 143.518-57.8996 143.518-53.0168C143.518-47.7433 140.393-44.6183 136.486-44.6183ZM67.033 2.50077L113.029 2.50077C120.744 2.50077 124.699-0.38008 124.699-6.28829C124.699-18.9835 109.416-30.8 90.0311-30.8C70.6463-30.8 55.3631-18.9835 55.3631-6.28829C55.3631-0.38008 59.3182 2.50077 67.033 2.50077ZM68.6444-8.24141C68.1561-8.24141 68.0584-8.58321 68.0584-8.87618C68.0584-12.6847 76.3592-20.0578 90.0311-20.0578C103.703-20.0578 112.004-12.6847 112.004-8.87618C112.004-8.58321 111.906-8.24141 111.418-8.24141ZM90.0311-33.8761C99.992-33.8761 107.804-42.3234 107.804-53.0168C107.804-63.3195 99.7967-71.9132 90.0311-71.9132C80.2655-71.9132 72.2577-63.3195 72.2577-53.0168C72.2577-42.3234 80.0702-33.8761 90.0311-33.8761ZM90.0311-44.6183C86.1737-44.6183 82.9998-47.7433 82.9998-53.0656C82.9998-57.8996 86.3202-61.1711 90.0311-61.1711C93.7909-61.1711 97.0623-57.8996 97.0623-53.0168C97.0623-47.7433 93.9373-44.6183 90.0311-44.6183ZM13.1116 2.50077L59.1077 2.50077C66.8226 2.50077 70.7777-0.38008 70.7777-6.28829C70.7777-18.9835 55.4945-30.8 36.1097-30.8C16.7249-30.8 1.4417-18.9835 1.4417-6.28829C1.4417-0.38008 5.39678 2.50077 13.1116 2.50077ZM14.723-8.24141C14.2347-8.24141 14.137-8.58321 14.137-8.87618C14.137-12.6847 22.4378-20.0578 36.1097-20.0578C49.7816-20.0578 58.0823-12.6847 58.0823-8.87618C58.0823-8.58321 57.9847-8.24141 57.4964-8.24141ZM36.1097-33.8761C46.0706-33.8761 53.8831-42.3234 53.8831-53.0168C53.8831-63.3195 45.8753-71.9132 36.1097-71.9132C26.3441-71.9132 18.3363-63.3195 18.3363-53.0168C18.3363-42.3234 26.1488-33.8761 36.1097-33.8761ZM36.1097-44.6183C32.2523-44.6183 29.0784-47.7433 29.0784-53.0656C29.0784-57.8996 32.3988-61.1711 36.1097-61.1711C39.8695-61.1711 43.1409-57.8996 43.1409-53.0168C43.1409-47.7433 40.0159-44.6183 36.1097-44.6183Z"/>
   <path class="monochrome-0 monochrome-1 multicolor-0:tintColor multicolor-1:tintColor hierarchical-0:primary hierarchical-1:secondary SFSymbolsPreviewWireframe" d="M168.762 14.0243C180.236 14.0243 189.709 4.4539 189.709-6.97188C189.709-18.3976 180.236-27.8703 168.762-27.8703C157.287-27.8703 147.815-18.3976 147.815-6.97188C147.815 4.4539 157.287 14.0243 168.762 14.0243ZM122.306 14.0243C133.781 14.0243 143.254 4.4539 143.254-6.97188C143.254-18.3976 133.781-27.8703 122.306-27.8703C110.832-27.8703 101.359-18.3976 101.359-6.97188C101.359 4.4539 110.832 14.0243 122.306 14.0243Z"/>
   <path class="monochrome-1 multicolor-1:tintColor hierarchical-1:secondary SFSymbolsPreviewWireframe" d="M68.3851 14.0243C79.8597 14.0243 89.3323 4.4539 89.3323-6.97188C89.3323-18.3976 79.8597-27.8703 68.3851-27.8703C56.9105-27.8703 47.4378-18.3976 47.4378-6.97188C47.4378 4.4539 56.9105 14.0243 68.3851 14.0243Z"/>
   <path class="monochrome-1 monochrome-2 multicolor-1:tintColor multicolor-2:tintColor hierarchical-1:secondary hierarchical-2:tertiary SFSymbolsPreviewWireframe" d="M168.762 20.3719C183.703 20.3719 196.057 7.96953 196.057-6.97188C196.057-21.9132 183.703-34.2179 168.762-34.2179C153.82-34.2179 141.467-21.9132 141.467-6.97188C141.467 7.96953 153.82 20.3719 168.762 20.3719ZM159.484-2.38204C157.141-2.38204 155.334-4.18868 155.334-6.53243C155.334-8.87618 157.141-10.6828 159.484-10.6828L165.002-10.6828L165.002-16.7863C165.002-19.13 166.809-20.9367 169.152-20.9367C171.496-20.9367 173.303-19.13 173.303-16.7863L173.303-6.53243C173.303-4.18868 171.496-2.38204 169.152-2.38204ZM122.306 20.3719C137.248 20.3719 149.601 7.96953 149.601-6.97188C149.601-21.9132 137.248-34.2179 122.306-34.2179C107.365-34.2179 95.0116-21.9132 95.0116-6.97188C95.0116 7.96953 107.365 20.3719 122.306 20.3719ZM113.029-2.38204C110.685-2.38204 108.879-4.18868 108.879-6.53243C108.879-8.87618 110.685-10.6828 113.029-10.6828L118.547-10.6828L118.547-16.7863C118.547-19.13 120.353-20.9367 122.697-20.9367C125.041-20.9367 126.847-19.13 126.847-16.7863L126.847-6.53243C126.847-4.18868 125.041-2.38204 122.697-2.38204Z"/>
   <path class="monochrome-0 monochrome-1 monochrome-2 multicolor-0:tintColor multicolor-1:tintColor multicolor-2:tintColor hierarchical-0:primary hierarchical-1:secondary hierarchical-2:tertiary SFSymbolsPreviewWireframe" d="M68.3851 20.3719C83.3265 20.3719 95.6801 7.96953 95.6801-6.97188C95.6801-21.9132 83.3265-34.2179 68.3851-34.2179C53.4437-34.2179 41.0902-21.9132 41.0902-6.97188C41.0902 7.96953 53.4437 20.3719 68.3851 20.3719Z"/>
   <path class="monochrome-2 multicolor-2:tintColor hierarchical-2:tertiary SFSymbolsPreviewWireframe" d="M59.1077-2.38204C56.764-2.38204 54.9573-4.18868 54.9573-6.53243C54.9573-8.87618 56.764-10.6828 59.1077-10.6828L64.6253-10.6828L64.6253-16.7863C64.6253-19.13 66.432-20.9367 68.7757-20.9367C71.1195-20.9367 72.9261-19.13 72.9261-16.7863L72.9261-6.53243C72.9261-4.18868 71.1195-2.38204 68.7757-2.38204Z"/>
  </g>
  <g id="Regular-S" transform="matrix(1 0 0 1 1363.74 696)">
   <path class="monochrome-0 multicolor-0:tintColor hierarchical-0:primary SFSymbolsPreviewWireframe" d="M108.897 1.03593L156.163 1.03593C162.999 1.03593 166.221-0.966016 166.221-5.36055C166.221-15.4191 153.526-30.1164 132.53-30.1164C111.583-30.1164 98.8385-15.4191 98.8385-5.36055C98.8385-0.966016 102.11 1.03593 108.897 1.03593ZM106.7-5.55587C106.163-5.55587 105.87-5.70235 105.87-6.23946C105.87-11.9523 115.245-23.5246 132.53-23.5246C149.815-23.5246 159.19-11.9523 159.19-6.23946C159.19-5.70235 158.897-5.55587 158.36-5.55587ZM132.53-34.6085C141.758-34.6085 149.327-42.8605 149.327-52.7726C149.327-62.6847 141.856-70.4484 132.53-70.4484C123.301-70.4484 115.733-62.5382 115.733-52.675C115.733-42.8117 123.35-34.6085 132.53-34.6085ZM132.53-41.1515C127.354-41.1515 122.764-46.2785 122.764-52.675C122.764-59.0714 127.208-63.8566 132.53-63.8566C137.901-63.8566 142.296-59.1691 142.296-52.7726C142.296-46.3761 137.803-41.1515 132.53-41.1515ZM62.4418 1.03593L109.707 1.03593C116.543 1.03593 119.766-0.966016 119.766-5.36055C119.766-15.4191 107.071-30.1164 86.0746-30.1164C65.1274-30.1164 52.3832-15.4191 52.3832-5.36055C52.3832-0.966016 55.6547 1.03593 62.4418 1.03593ZM60.2446-5.55587C59.7074-5.55587 59.4145-5.70235 59.4145-6.23946C59.4145-11.9523 68.7895-23.5246 86.0746-23.5246C103.36-23.5246 112.735-11.9523 112.735-6.23946C112.735-5.70235 112.442-5.55587 111.905-5.55587ZM86.0746-34.6085C95.3031-34.6085 102.871-42.8605 102.871-52.7726C102.871-62.6847 95.4008-70.4484 86.0746-70.4484C76.8461-70.4484 69.2778-62.5382 69.2778-52.675C69.2778-42.8117 76.8949-34.6085 86.0746-34.6085ZM86.0746-41.1515C80.8988-41.1515 76.309-46.2785 76.309-52.675C76.309-59.0714 80.7524-63.8566 86.0746-63.8566C91.4457-63.8566 95.8403-59.1691 95.8403-52.7726C95.8403-46.3761 91.3481-41.1515 86.0746-41.1515ZM8.52038 1.03593L55.786 1.03593C62.622 1.03593 65.8446-0.966016 65.8446-5.36055C65.8446-15.4191 53.1493-30.1164 32.1532-30.1164C11.206-30.1164-1.5382-15.4191-1.5382-5.36055C-1.5382-0.966016 1.73328 1.03593 8.52038 1.03593ZM6.32318-5.55587C5.78598-5.55587 5.49308-5.70235 5.49308-6.23946C5.49308-11.9523 14.8681-23.5246 32.1532-23.5246C49.4384-23.5246 58.8134-11.9523 58.8134-6.23946C58.8134-5.70235 58.5204-5.55587 57.9833-5.55587ZM32.1532-34.6085C41.3817-34.6085 48.9501-42.8605 48.9501-52.7726C48.9501-62.6847 41.4794-70.4484 32.1532-70.4484C22.9247-70.4484 15.3564-62.5382 15.3564-52.675C15.3564-42.8117 22.9735-34.6085 32.1532-34.6085ZM32.1532-41.1515C26.9774-41.1515 22.3876-46.2785 22.3876-52.675C22.3876-59.0714 26.831-63.8566 32.1532-63.8566C37.5243-63.8566 41.9189-59.1691 41.9189-52.7726C41.9189-46.3761 37.4267-41.1515 32.1532-41.1515Z"/>
   <path class="monochrome-0 monochrome-1 multicolor-0:tintColor multicolor-1:tintColor hierarchical-0:primary hierarchical-1:secondary SFSymbolsPreviewWireframe" d="M165.245 13.536C175.889 13.536 184.923 4.55156 184.923-6.19063C184.923-16.9816 176.036-25.8683 165.245-25.8683C154.454-25.8683 145.567-16.9816 145.567-6.19063C145.567 4.64921 154.454 13.536 165.245 13.536ZM118.789 13.536C129.434 13.536 138.467 4.55156 138.467-6.19063C138.467-16.9816 129.58-25.8683 118.789-25.8683C107.998-25.8683 99.1117-16.9816 99.1117-6.19063C99.1117 4.64921 107.998 13.536 118.789 13.536Z"/>
   <path class="monochrome-1 multicolor-1:tintColor hierarchical-1:secondary SFSymbolsPreviewWireframe" d="M64.8681 13.536C75.5126 13.536 84.5458 4.55156 84.5458-6.19063C84.5458-16.9816 75.6591-25.8683 64.8681-25.8683C54.0771-25.8683 45.1903-16.9816 45.1903-6.19063C45.1903 4.64921 54.0771 13.536 64.8681 13.536Z"/>
   <path class="monochrome-1 monochrome-2 multicolor-1:tintColor multicolor-2:tintColor hierarchical-1:secondary hierarchical-2:tertiary SFSymbolsPreviewWireframe" d="M165.245 19.2C179.063 19.2 190.635 7.67656 190.635-6.19063C190.635-20.1066 179.161-31.5812 165.245-31.5812C151.329-31.5812 139.854-20.1066 139.854-6.19063C139.854 7.82304 151.28 19.2 165.245 19.2ZM156.26-3.11446C154.844-3.11446 153.673-4.28633 153.673-5.65352C153.673-7.02071 154.893-8.19258 156.26-8.19258L162.901-8.19258L162.901-17.3234C162.901-18.6906 164.024-19.8136 165.489-19.8136C166.856-19.8136 167.979-18.6906 167.979-17.3234L167.979-5.65352C167.979-4.23751 166.905-3.11446 165.489-3.11446ZM118.789 19.2C132.608 19.2 144.18 7.67656 144.18-6.19063C144.18-20.1066 132.705-31.5812 118.789-31.5812C104.873-31.5812 93.3988-20.1066 93.3988-6.19063C93.3988 7.82304 104.825 19.2 118.789 19.2ZM109.805-3.11446C108.389-3.11446 107.217-4.28633 107.217-5.65352C107.217-7.02071 108.438-8.19258 109.805-8.19258L116.446-8.19258L116.446-17.3234C116.446-18.6906 117.569-19.8136 119.034-19.8136C120.401-19.8136 121.524-18.6906 121.524-17.3234L121.524-5.65352C121.524-4.23751 120.45-3.11446 119.034-3.11446Z"/>
   <path class="monochrome-0 monochrome-1 monochrome-2 multicolor-0:tintColor multicolor-1:tintColor multicolor-2:tintColor hierarchical-0:primary hierarchical-1:secondary hierarchical-2:tertiary SFSymbolsPreviewWireframe" d="M64.8681 19.2C78.6864 19.2 90.2582 7.67656 90.2582-6.19063C90.2582-20.1066 78.7841-31.5812 64.8681-31.5812C50.9521-31.5812 39.4774-20.1066 39.4774-6.19063C39.4774 7.82304 50.9032 19.2 64.8681 19.2Z"/>
   <path class="monochrome-2 multicolor-2:tintColor hierarchical-2:tertiary SFSymbolsPreviewWireframe" d="M55.8837-3.11446C54.4677-3.11446 53.2958-4.28633 53.2958-5.65352C53.2958-7.02071 54.5165-8.19258 55.8837-8.19258L62.5243-8.19258L62.5243-17.3234C62.5243-18.6906 63.6474-19.8136 65.1122-19.8136C66.4794-19.8136 67.6024-18.6906 67.6024-17.3234L67.6024-5.65352C67.6024-4.23751 66.5282-3.11446 65.1122-3.11446Z"/>
  </g>
  <g id="Ultralight-S" transform="matrix(1 0 0 1 473.807 696)">
   <path class="monochrome-0 multicolor-0:tintColor hierarchical-0:primary SFSymbolsPreviewWireframe" d="M106.446-0.689636L158.162-0.689636C162.455-0.689636 164.497-2.19209 164.497-5.49678C164.497-15.3737 152.119-29.1173 132.304-29.1173C112.537-29.1173 100.156-15.3737 100.156-5.49678C100.156-2.19209 102.156-0.689636 106.446-0.689636ZM106.338-2.87669C103.303-2.87669 102.374-3.56809 102.374-5.55831C102.374-14.4952 113.566-26.9303 132.304-26.9303C151.088-26.9303 162.279-14.4952 162.279-5.55831C162.279-3.56809 161.35-2.87669 158.27-2.87669ZM132.395-35.1081C141.033-35.1081 147.693-42.4972 147.693-52.0915C147.693-61.1862 140.813-68.6774 132.395-68.6774C123.984-68.6774 117.142-61.1305 117.142-52.0846C117.142-42.4938 123.805-35.1081 132.395-35.1081ZM132.395-37.2917C125.039-37.2917 119.36-43.6901 119.36-52.0846C119.36-59.9342 125.165-66.4904 132.395-66.4904C139.582-66.4904 145.475-59.9865 145.475-52.0915C145.475-43.697 139.757-37.2917 132.395-37.2917ZM59.9907-0.689636L111.706-0.689636C115.999-0.689636 118.041-2.19209 118.041-5.49678C118.041-15.3737 105.664-29.1173 85.8486-29.1173C66.082-29.1173 53.7011-15.3737 53.7011-5.49678C53.7011-2.19209 55.7011-0.689636 59.9907-0.689636ZM59.8823-2.87669C56.8476-2.87669 55.9189-3.56809 55.9189-5.55831C55.9189-14.4952 67.1103-26.9303 85.8486-26.9303C104.632-26.9303 115.824-14.4952 115.824-5.55831C115.824-3.56809 114.895-2.87669 111.815-2.87669ZM85.9394-35.1081C94.5776-35.1081 101.238-42.4972 101.238-52.0915C101.238-61.1862 94.3574-68.6774 85.9394-68.6774C77.5283-68.6774 70.6865-61.1305 70.6865-52.0846C70.6865-42.4938 77.3501-35.1081 85.9394-35.1081ZM85.9394-37.2917C78.584-37.2917 72.9043-43.6901 72.9043-52.0846C72.9043-59.9342 78.7099-66.4904 85.9394-66.4904C93.1269-66.4904 99.02-59.9865 99.02-52.0915C99.02-43.697 93.3017-37.2917 85.9394-37.2917ZM6.06932-0.689636L57.7851-0.689636C62.0781-0.689636 64.1201-2.19209 64.1201-5.49678C64.1201-15.3737 51.7426-29.1173 31.9272-29.1173C12.1606-29.1173-0.220262-15.3737-0.220262-5.49678C-0.220262-2.19209 1.77972-0.689636 6.06932-0.689636ZM5.96092-2.87669C2.92622-2.87669 1.99752-3.56809 1.99752-5.55831C1.99752-14.4952 13.1889-26.9303 31.9272-26.9303C50.7109-26.9303 61.9023-14.4952 61.9023-5.55831C61.9023-3.56809 60.9736-2.87669 57.8935-2.87669ZM32.018-35.1081C40.6562-35.1081 47.3164-42.4972 47.3164-52.0915C47.3164-61.1862 40.436-68.6774 32.018-68.6774C23.6069-68.6774 16.7651-61.1305 16.7651-52.0846C16.7651-42.4938 23.4287-35.1081 32.018-35.1081ZM32.018-37.2917C24.6626-37.2917 18.9829-43.6901 18.9829-52.0846C18.9829-59.9342 24.7885-66.4904 32.018-66.4904C39.2055-66.4904 45.0986-59.9865 45.0986-52.0915C45.0986-43.697 39.3803-37.2917 32.018-37.2917Z"/>
   <path class="monochrome-0 monochrome-1 multicolor-0:tintColor multicolor-1:tintColor hierarchical-0:primary hierarchical-1:secondary SFSymbolsPreviewWireframe" d="M164.746 13.1727C174.755 13.1727 183.016 4.91483 183.016-5.1008C183.016-15.1652 174.811-23.4162 164.746-23.4162C154.773-23.4162 146.476-15.1198 146.476-5.1008C146.476 4.92167 154.773 13.1727 164.746 13.1727ZM118.291 13.1727C128.3 13.1727 136.561 4.91483 136.561-5.1008C136.561-15.1652 128.355-23.4162 118.291-23.4162C108.317-23.4162 100.021-15.1198 100.021-5.1008C100.021 4.92167 108.317 13.1727 118.291 13.1727Z"/>
   <path class="monochrome-1 multicolor-1:tintColor hierarchical-1:secondary SFSymbolsPreviewWireframe" d="M64.3696 13.1727C74.3784 13.1727 82.6396 4.91483 82.6396-5.1008C82.6396-15.1652 74.434-23.4162 64.3696-23.4162C54.3959-23.4162 46.0996-15.1198 46.0996-5.1008C46.0996 4.92167 54.3959 13.1727 64.3696 13.1727Z"/>
   <path class="monochrome-1 monochrome-2 multicolor-1:tintColor multicolor-2:tintColor hierarchical-1:secondary hierarchical-2:tertiary SFSymbolsPreviewWireframe" d="M164.746 16.2484C176.43 16.2484 186.095 6.58672 186.095-5.1008C186.095-16.8371 176.483-26.4953 164.746-26.4953C153.055-26.4953 143.397-16.7917 143.397-5.1008C143.397 6.59698 153.052 16.2484 164.746 16.2484ZM155.217-2.52413C154.346-2.52413 153.674-3.15109 153.674-4.06418C153.674-4.88645 154.349-5.55882 155.217-5.55882L163.356-5.55882L163.356-17.1872C163.356-18.0094 163.98-18.633 164.809-18.633C165.722-18.633 166.391-18.0094 166.391-17.1872L166.391-4.06418C166.391-3.23849 165.68-2.52413 164.809-2.52413ZM118.291 16.2484C129.975 16.2484 139.64 6.58672 139.64-5.1008C139.64-16.8371 130.027-26.4953 118.291-26.4953C106.6-26.4953 96.9418-16.7917 96.9418-5.1008C96.9418 6.59698 106.597 16.2484 118.291 16.2484ZM108.762-2.52413C107.891-2.52413 107.218-3.15109 107.218-4.06418C107.218-4.88645 107.894-5.55882 108.762-5.55882L116.901-5.55882L116.901-17.1872C116.901-18.0094 117.524-18.633 118.353-18.633C119.267-18.633 119.935-18.0094 119.935-17.1872L119.935-4.06418C119.935-3.23849 119.225-2.52413 118.353-2.52413Z"/>
   <path class="monochrome-0 monochrome-1 monochrome-2 multicolor-0:tintColor multicolor-1:tintColor multicolor-2:tintColor hierarchical-0:primary hierarchical-1:secondary hierarchical-2:tertiary SFSymbolsPreviewWireframe" d="M64.3696 16.2484C76.0537 16.2484 85.7187 6.58672 85.7187-5.1008C85.7187-16.8371 76.1059-26.4953 64.3696-26.4953C52.6786-26.4953 43.0204-16.7917 43.0204-5.1008C43.0204 6.59698 52.6752 16.2484 64.3696 16.2484Z"/>
   <path class="monochrome-2 multicolor-2:tintColor hierarchical-2:tertiary SFSymbolsPreviewWireframe" d="M54.8403-2.52413C53.9692-2.52413 53.2968-3.15109 53.2968-4.06418C53.2968-4.88645 53.9726-5.55882 54.8403-5.55882L62.9794-5.55882L62.9794-17.1872C62.9794-18.0094 63.603-18.633 64.4321-18.633C65.3452-18.633 66.0141-18.0094 66.0141-17.1872L66.0141-4.06418C66.0141-3.23849 65.3032-2.52413 64.4321-2.52413Z"/>
  </g>
 </g>
</svg>
